<svg id="visual" viewBox="0 0 900 600" width="900" height="600" xmlns="http://www.w3.org/2000/svg" xmlns:xlink="http://www.w3.org/1999/xlink" version="1.1"><path d="M0 323L21.5 333C43 343 86 363 128.8 381.2C171.7 399.3 214.3 415.7 257.2 411.8C300 408 343 384 385.8 383.2C428.7 382.3 471.3 404.7 514.2 411.8C557 419 600 411 642.8 401.5C685.7 392 728.3 381 771.2 365.7C814 350.3 857 330.7 878.5 320.8L900 311L900 601L878.5 601C857 601 814 601 771.2 601C728.3 601 685.7 601 642.8 601C600 601 557 601 514.2 601C471.3 601 428.7 601 385.8 601C343 601 300 601 257.2 601C214.3 601 171.7 601 128.8 601C86 601 43 601 21.5 601L0 601Z" fill="#880873"></path><path d="M0 465L21.5 449.8C43 434.7 86 404.3 128.8 403.3C171.7 402.3 214.3 430.7 257.2 436.8C300 443 343 427 385.8 427.7C428.7 428.3 471.3 445.7 514.2 449.3C557 453 600 443 642.8 439.8C685.7 436.7 728.3 440.3 771.2 432.3C814 424.3 857 404.7 878.5 394.8L900 385L900 601L878.5 601C857 601 814 601 771.2 601C728.3 601 685.7 601 642.8 601C600 601 557 601 514.2 601C471.3 601 428.7 601 385.8 601C343 601 300 601 257.2 601C214.3 601 171.7 601 128.8 601C86 601 43 601 21.5 601L0 601Z" fill="#7e0a6f"></path><path d="M0 468L21.5 471C43 474 86 480 128.8 490.5C171.7 501 214.3 516 257.2 513.2C300 510.3 343 489.7 385.8 480.8C428.7 472 471.3 475 514.2 485.2C557 495.3 600 512.7 642.8 516C685.7 519.3 728.3 508.7 771.2 507.2C814 505.7 857 513.3 878.5 517.2L900 521L900 601L878.5 601C857 601 814 601 771.2 601C728.3 601 685.7 601 642.8 601C600 601 557 601 514.2 601C471.3 601 428.7 601 385.8 601C343 601 300 601 257.2 601C214.3 601 171.7 601 128.8 601C86 601 43 601 21.5 601L0 601Z" fill="#740b6a"></path></svg>