<svg id="visual" viewBox="0 0 900 600" width="900" height="600" xmlns="http://www.w3.org/2000/svg" xmlns:xlink="http://www.w3.org/1999/xlink" version="1.1"><path d="M0 354L21.5 354.8C43 355.7 86 357.3 128.8 372.2C171.7 387 214.3 415 257.2 432.7C300 450.3 343 457.7 385.8 460.8C428.7 464 471.3 463 514.2 440.8C557 418.7 600 375.3 642.8 356.3C685.7 337.3 728.3 342.7 771.2 357.7C814 372.7 857 397.3 878.5 409.7L900 422L900 601L878.5 601C857 601 814 601 771.2 601C728.3 601 685.7 601 642.8 601C600 601 557 601 514.2 601C471.3 601 428.7 601 385.8 601C343 601 300 601 257.2 601C214.3 601 171.7 601 128.8 601C86 601 43 601 21.5 601L0 601Z" fill="#880873"></path><path d="M0 418L21.5 430.3C43 442.7 86 467.3 128.8 472.2C171.7 477 214.3 462 257.2 465C300 468 343 489 385.8 497C428.7 505 471.3 500 514.2 486.7C557 473.3 600 451.7 642.8 446.5C685.7 441.3 728.3 452.7 771.2 446.5C814 440.3 857 416.7 878.5 404.8L900 393L900 601L878.5 601C857 601 814 601 771.2 601C728.3 601 685.7 601 642.8 601C600 601 557 601 514.2 601C471.3 601 428.7 601 385.8 601C343 601 300 601 257.2 601C214.3 601 171.7 601 128.8 601C86 601 43 601 21.5 601L0 601Z" fill="#7e0a6f"></path><path d="M0 489L21.5 491C43 493 86 497 128.8 507.5C171.7 518 214.3 535 257.2 543C300 551 343 550 385.8 536.2C428.7 522.3 471.3 495.7 514.2 490.8C557 486 600 503 642.8 507.8C685.7 512.7 728.3 505.3 771.2 499.2C814 493 857 488 878.5 485.5L900 483L900 601L878.5 601C857 601 814 601 771.2 601C728.3 601 685.7 601 642.8 601C600 601 557 601 514.2 601C471.3 601 428.7 601 385.8 601C343 601 300 601 257.2 601C214.3 601 171.7 601 128.8 601C86 601 43 601 21.5 601L0 601Z" fill="#740b6a"></path></svg>